<svg xmlns="http://www.w3.org/2000/svg" viewBox="0 0 432.071 445.383">
  <g id="orginal" style="fill-rule:evenodd;clip-rule:evenodd;stroke-linejoin:round;stroke-miterlimit:1.41421;">
    <path id="body" style="fill:#336791;" d="M323.205,324.227c2.833-23.601,1.984-27.062,19.563-23.239l4.463,0.392c13.517,0.615,31.199-2.174,41.587-7c22.362-10.376,35.622-27.7,13.572-23.148c-50.297,10.376-53.755-6.655-53.755-6.655c53.111-78.803,75.313-178.836,56.149-203.322    C352.514-5.534,262.036,26.049,260.522,26.869l-0.482,0.089c-9.938-2.062-21.06-3.294-33.554-3.496c-22.761-0.374-40.032,5.967-53.133,15.904c0,0-161.408-66.498-153.899,83.628c1.597,31.936,45.777,241.655,98.47,178.31    c19.259-23.163,37.871-42.748,37.871-42.748c9.242,6.14,20.307,9.272,31.912,8.147l0.897-0.765c-0.281,2.876-0.157,5.689,0.359,9.019c-13.572,15.167-9.584,17.83-36.723,23.416c-27.457,5.659-11.326,15.734-0.797,18.367c12.768,3.193,42.305,7.716,62.268-20.224    l-0.795,3.188c5.325,4.26,4.965,30.619,5.72,49.452c0.756,18.834,2.017,36.409,5.856,46.771c3.839,10.36,8.369,37.05,44.036,29.406c29.809-6.388,52.6-15.582,54.677-101.107"/>
    <path id="eye" style="fill:#ffffff;" d="M402.395,271.23c-50.302,10.376-53.76-6.655-53.76-6.655c53.111-78.808,75.313-178.843,56.153-203.326c-52.27-66.785-142.752-35.2-144.262-34.38l-0.486,0.087c-9.938-2.063-21.06-3.292-33.56-3.496c-22.761-0.373-40.026,5.967-53.127,15.902    c0,0-161.411-66.495-153.904,83.63c1.597,31.938,45.776,241.657,98.471,178.312c19.26-23.163,37.869-42.748,37.869-42.748c9.243,6.14,20.308,9.272,31.908,8.147l0.901-0.765c-0.28,2.876-0.152,5.689,0.361,9.019c-13.575,15.167-9.586,17.83-36.723,23.416    c-27.459,5.659-11.328,15.734-0.796,18.367c12.768,3.193,42.307,7.716,62.266-20.224l-0.796,3.188c5.319,4.26,9.054,27.711,8.428,48.969c-0.626,21.259-1.044,35.854,3.147,47.254c4.191,11.4,8.368,37.05,44.042,29.406c29.809-6.388,45.256-22.942,47.405-50.555    c1.525-19.631,4.976-16.729,5.194-34.28l2.768-8.309c3.192-26.611,0.507-35.196,18.872-31.203l4.463,0.392c13.517,0.615,31.208-2.174,41.591-7c22.358-10.376,35.618-27.7,13.573-23.148z"/>
    <path id="shine" style="fill:#336791;" d="M215.866,286.484c-1.385,49.516,0.348,99.377,5.193,111.495c4.848,12.118,15.223,35.688,50.9,28.045c29.806-6.39,40.651-18.756,45.357-46.051c3.466-20.082,10.148-75.854,11.005-87.281"/>
  </g>
</svg>
